<svg xmlns="http://www.w3.org/2000/svg" viewBox="0 0 382 382"  xmlns:v="https://vecta.io/nano"><path d="M320.92 26.934H56.172c-16.148 0-29.238 13.19-29.238 29.46v266.757c0 16.271 13.091 29.461 29.238 29.461h264.747c16.149 0 29.239-13.19 29.239-29.461V56.394c0-16.27-13.091-29.46-29.238-29.46zM126.953 308.146c0 4.735-3.809 8.573-8.509 8.573h-36.22c-4.699 0-8.509-3.838-8.509-8.573V155.162c0-4.735 3.809-8.573 8.509-8.573h36.22c4.699 0 8.509 3.838 8.509 8.573zm-26.619-175.979c-19.003 0-34.409-15.523-34.409-34.67s15.406-34.67 34.409-34.67 34.409 15.523 34.409 34.67-15.405 34.67-34.409 34.67zm215.902 176.669c0 4.353-3.503 7.883-7.823 7.883h-38.866c-4.32 0-7.823-3.53-7.823-7.883v-71.758c0-10.705 3.116-46.909-27.764-46.909-23.953 0-28.812 24.781-29.787 35.901v82.766c0 4.353-3.502 7.883-7.823 7.883h-37.59c-4.32 0-7.823-3.53-7.823-7.883V154.471c0-4.353 3.503-7.883 7.823-7.883h37.59c4.32 0 7.823 3.53 7.823 7.883v13.347c8.882-13.43 22.082-23.797 50.186-23.797 62.235 0 61.879 58.585 61.879 90.774z" fill="#0a66c2"/></svg>