<svg xmlns="http://www.w3.org/2000/svg" viewBox="0 0 427.652 427.652"  xmlns:v="https://vecta.io/nano"><path d="M215.426 36.381c-96.829 0-175.325 78.495-175.325 175.325s78.495 175.325 175.325 175.325S390.75 308.535 390.75 211.706 312.255 36.381 215.426 36.381zm76.304 254.444c-2.229 3.814-6.241 5.941-10.362 5.942a11.94 11.94 0 0 1-6.038-1.64c-31.506-18.413-67.903-21.372-92.895-20.612-27.684.842-47.985 6.307-48.187 6.363a12 12 0 0 1-14.727-8.393c-1.75-6.38 1.992-12.971 8.371-14.728.915-.252 22.762-6.186 53.141-7.188 17.894-.59 35.121.657 51.196 3.706 20.359 3.862 38.931 10.641 55.2 20.149a11.99 11.99 0 0 1 4.302 16.4zm22.289-46.293c-2.64 4.519-7.393 7.038-12.275 7.038-2.434 0-4.899-.626-7.152-1.942-37.319-21.81-80.434-25.314-110.036-24.415-32.793.998-56.841 7.471-57.079 7.537-7.557 2.062-15.371-2.383-17.444-9.941a14.2 14.2 0 0 1 9.916-17.446c1.084-.298 26.961-7.328 62.947-8.514 21.198-.699 41.603.778 60.643 4.39 24.116 4.575 46.114 12.605 65.385 23.867 6.773 3.957 9.054 12.655 5.096 19.426zm13.702-42.092c-2.985 0-6.009-.767-8.773-2.383-88.723-51.851-203.815-21.026-204.967-20.708a17.42 17.42 0 0 1-21.42-12.167c-2.556-9.275 2.892-18.865 12.167-21.42 1.329-.367 33.071-8.988 77.211-10.444 26.003-.856 51.031.954 74.385 5.385 29.581 5.612 56.565 15.461 80.203 29.275 8.306 4.854 11.104 15.522 6.25 23.828-3.239 5.543-9.068 8.633-15.056 8.633z" fill="#00d95f"/></svg>