<svg xmlns="http://www.w3.org/2000/svg" viewBox="0 0 434.016 434.016"  xmlns:v="https://vecta.io/nano"><path d="M383.086 79.903c-8.768-9.449-21.461-14.482-37.72-14.959-45.908-1.48-78.376 22.942-96.498 72.58a7.37 7.37 0 0 0 1.514 7.544c1.875 2.035 4.691 2.844 7.353 2.114 5.212-1.433 10.38-2.159 15.363-2.159 6.69 0 15.594 1.23 20.026 7.09 3.402 4.497 3.865 11.241 1.376 20.042-2.101 7.425-12.913 27.302-26.296 48.335-16.303 25.626-25.31 37.114-27.906 37.114-8.603 0-39.688-137.836-40.542-140.859-8.916-31.59-13.392-47.447-42.385-47.447-22.097 0-71.383 40.353-111.851 75.508l-6.208 5.37c-3.912 3.344-4.502 9.153-1.341 13.224l7.541 9.716a9.61 9.61 0 0 0 13.193 1.945l.415-.295c13.092-9.314 25.461-18.111 34.797-18.594 10.146-.498 18.95 15.353 29.446 53.071 19.989 73.262 50.36 160.593 81.527 160.593 32.571 0 71.428-27.611 121.656-92.975 45.459-59.16 69.801-106.08 71.365-140.218h0c1.174-25.783-3.813-44.873-14.824-56.741z" fill="#69b4e5"/></svg>